<?xml version="1.0" standalone="no"?><!DOCTYPE svg PUBLIC "-//W3C//DTD SVG 1.1//EN" "http://www.w3.org/Graphics/SVG/1.1/DTD/svg11.dtd"><svg t="1739678188791" class="icon" viewBox="0 0 1024 1024" version="1.1" xmlns="http://www.w3.org/2000/svg" p-id="4476" xmlns:xlink="http://www.w3.org/1999/xlink" width="200" height="200"><path d="M881.1 562.4c-9.2-284.8-17.6-305.8-20.3-312.7-8-20.1-35.7-42.2-84.7-67.6-30.4-15.8-58.8-27.4-66.5-30.4l-62.5-62.6-0.1-0.1c-0.2-0.2-0.4-0.3-0.6-0.5-0.1-0.1-0.2-0.1-0.2-0.2-0.2-0.1-0.3-0.3-0.5-0.4-0.1-0.1-0.2-0.1-0.3-0.2-0.2-0.1-0.3-0.2-0.5-0.3-0.1-0.1-0.2-0.1-0.4-0.2s-0.3-0.2-0.5-0.2c-0.1-0.1-0.3-0.1-0.4-0.2-0.1-0.1-0.3-0.1-0.4-0.2-0.1 0-0.3-0.1-0.4-0.1-0.2 0-0.3-0.1-0.5-0.1-0.1 0-0.3-0.1-0.4-0.1-0.2 0-0.3-0.1-0.5-0.1-0.1 0-0.3 0-0.4-0.1H383.1c-0.1 0-0.3 0-0.4 0.1-0.2 0-0.3 0-0.5 0.1-0.2 0-0.3 0.1-0.4 0.1-0.2 0-0.3 0.1-0.4 0.1-0.2 0-0.3 0.1-0.5 0.1-0.1 0-0.3 0.1-0.4 0.2-0.1 0.1-0.3 0.1-0.4 0.2-0.2 0.1-0.3 0.1-0.4 0.2-0.1 0.1-0.3 0.1-0.4 0.2-0.2 0.1-0.3 0.2-0.5 0.3-0.1 0.1-0.2 0.1-0.3 0.2-0.2 0.1-0.3 0.3-0.5 0.4-0.1 0.1-0.2 0.1-0.2 0.2-0.2 0.2-0.4 0.4-0.6 0.5l-0.1 0.1-62.5 62.6c-7.7 3.1-36.1 14.7-66.5 30.4-49.1 25.4-76.8 47.5-84.7 67.6-2.7 6.9-11.1 28-20.3 312.7-4.5 140-7 276.5-7.1 277.9-0.1 3.9 2.2 7.6 5.8 9.2L246 898.4v29.4c0 5.5 4.5 10 10 10h512c5.5 0 10-4.5 10-10v-29.4l104.4-48.9c3.6-1.7 5.8-5.3 5.8-9.2 0-1.4-2.6-137.9-7.1-277.9zM512 176.8l-97.2-70.6h194.5L512 176.8z m-127-67.5l117 85-0.1 68.1c-16.2-1.7-53-9.9-102.7-46.5-20.1-14.8-46.5-49-57.3-63.6l43.1-43z m137 153.1l0.1-68.1 116.9-85 43 43.1c-10.8 14.6-37.2 48.8-57.3 63.6-49.8 36.6-86.6 44.7-102.7 46.4z m256 614V381.2c0-5.5-4.5-10-10-10s-10 4.5-10 10v536.6H522v-124c0-5.5-4.5-10-10-10s-10 4.5-10 10v124H266V381.2c0-5.5-4.5-10-10-10s-10 4.5-10 10v495.1l-90.1-42.2c0.6-28.8 3-148.6 6.9-271.1 7.9-244.7 15.2-296.8 18.9-306 3.4-8.5 17.7-27.3 75.2-57.1 33.9-17.6 66.4-30.3 66.7-30.4 1.3-0.5 2.5-1.3 3.4-2.2l0.6-0.6c12.3 16.4 38.4 49.6 59.7 65.4 63.8 47 109 50.8 121.8 50.8 1.2 0 2.1 0 2.7-0.1 0.6 0 1.5 0.1 2.8 0.1 12.8 0 58-3.8 121.8-50.8 21.4-15.7 47.5-48.9 59.7-65.4l0.6 0.6c1 1 2.2 1.7 3.4 2.3 49 19.1 130.9 59.8 141.9 87.5 3.7 9.2 11 61.3 18.9 306 4 122.5 6.4 242.4 6.9 271.2L778 876.4z" fill="#2172F4" p-id="4477"></path><path d="M550.5 335.9h-76.9c-5.5 0-10 4.5-10 10s4.5 10 10 10h76.9c5.5 0 10-4.5 10-10s-4.5-10-10-10zM550.5 431.9h-76.9c-5.5 0-10 4.5-10 10s4.5 10 10 10h76.9c5.5 0 10-4.5 10-10s-4.5-10-10-10zM550.5 527.9h-76.9c-5.5 0-10 4.5-10 10s4.5 10 10 10h76.9c5.5 0 10-4.5 10-10s-4.5-10-10-10zM550.5 623.9h-76.9c-5.5 0-10 4.5-10 10s4.5 10 10 10h76.9c5.5 0 10-4.5 10-10s-4.5-10-10-10zM550.5 719.9h-76.9c-5.5 0-10 4.5-10 10s4.5 10 10 10h76.9c5.5 0 10-4.5 10-10s-4.5-10-10-10z" fill="#2172F4" p-id="4478"></path></svg>